<?xml version="1.0" encoding="UTF-8"?>
<!DOCTYPE score-partwise PUBLIC "-//Recordare//DTD MusicXML 3.0 Partwise//EN" "http://www.musicxml.org/dtds/partwise.dtd">
<score-partwise>
  <work>
    <work-title>Eoin's Song with Piano</work-title>
    </work>
  <identification>
    <creator type="composer">Eoin Falconer</creator>
    <encoding>
      <software>MuseScore 2.0.3.1</software>
      <encoding-date>2017-03-14</encoding-date>
      <supports element="accidental" type="yes"/>
      <supports element="beam" type="yes"/>
      <supports element="print" attribute="new-page" type="yes" value="yes"/>
      <supports element="print" attribute="new-system" type="yes" value="yes"/>
      <supports element="stem" type="yes"/>
      </encoding>
    </identification>
  <defaults>
    <scaling>
      <millimeters>7.05556</millimeters>
      <tenths>40</tenths>
      </scaling>
    <page-layout>
      <page-height>1683.36</page-height>
      <page-width>1190.88</page-width>
      <page-margins type="even">
        <left-margin>56.6929</left-margin>
        <right-margin>56.6929</right-margin>
        <top-margin>56.6929</top-margin>
        <bottom-margin>113.386</bottom-margin>
        </page-margins>
      <page-margins type="odd">
        <left-margin>56.6929</left-margin>
        <right-margin>56.6929</right-margin>
        <top-margin>56.6929</top-margin>
        <bottom-margin>113.386</bottom-margin>
        </page-margins>
      </page-layout>
    <word-font font-family="FreeSerif" font-size="10"/>
    <lyric-font font-family="FreeSerif" font-size="11"/>
    </defaults>
  <credit page="1">
    <credit-words default-x="595.44" default-y="1626.67" justify="center" valign="top" font-size="24">Eoin's Song with Piano</credit-words>
    </credit>
  <credit page="1">
    <credit-words default-x="1134.19" default-y="1526.67" justify="right" valign="bottom" font-size="12">Eoin Falconer</credit-words>
    </credit>
  <part-list>
    <part-group type="start" number="1">
      <group-symbol>bracket</group-symbol>
      </part-group>
      <score-part id="P1">
<part-name>Part 1</part-name>
<part-abbreviation>P.</part-abbreviation>
<score-instrument id="P1-I1">
<instrument-name>Test</instrument-name>
</score-instrument>
<midi-device id="P1-I1" port="1"></midi-device>
<midi-instrument id="P1-I1">
<midi-channel>1</midi-channel>
<midi-program>53</midi-program>
<volume>78.7402</volume>
<pan>0</pan>
</midi-instrument>
</score-part>
<score-part id="P2">
<part-name>Part 2</part-name>
<part-abbreviation>P.</part-abbreviation>
<score-instrument id="P2-I1">
<instrument-name>Test</instrument-name>
</score-instrument>
<midi-device id="P2-I1" port="1"></midi-device>
<midi-instrument id="P2-I1">
<midi-channel>2</midi-channel>
<midi-program>53</midi-program>
<volume>78.7402</volume>
<pan>0</pan>
</midi-instrument>
</score-part>
<score-part id="P3">
<part-name>Part 3</part-name>
<part-abbreviation>P.</part-abbreviation>
<score-instrument id="P3-I1">
<instrument-name>Test</instrument-name>
</score-instrument>
<midi-device id="P3-I1" port="1"></midi-device>
<midi-instrument id="P3-I1">
<midi-channel>3</midi-channel>
<midi-program>53</midi-program>
<volume>78.7402</volume>
<pan>0</pan>
</midi-instrument>
</score-part>
<score-part id="P4">
<part-name>Part 4</part-name>
<part-abbreviation>P.</part-abbreviation>
<score-instrument id="P4-I1">
<instrument-name>Test</instrument-name>
</score-instrument>
<midi-device id="P4-I1" port="1"></midi-device>
<midi-instrument id="P4-I1">
<midi-channel>4</midi-channel>
<midi-program>53</midi-program>
<volume>78.7402</volume>
<pan>0</pan>
</midi-instrument>
</score-part>
<part-group type="stop" number="1"/>
</part-list><part id="P1">
	<measure number="1" width="181">
	<print>
		<system-layout>
			<system-margins>
				<left-margin>109.66</left-margin>
				<right-margin>-0.00</right-margin>
			</system-margins>
			<top-system-distance>170.00</top-system-distance>
		</system-layout>
	</print>
	<attributes>
		<divisions>1</divisions>
		<key>
			<fifths>-1</fifths>
		</key>
		<time>
			<beats>4</beats>
			<beat-type>4</beat-type>
		</time>
		<clef>
			<sign>G</sign>
			<line>2</line>
		</clef>
	</attributes>
<direction placement="above">
<direction-type>
<words default-y="40" font-family="Times New Roman" font-size="12" font-weight="bold">Moderato  </words>
</direction-type>
<direction-type>
<metronome default-y="40" parentheses="yes">
<beat-unit>quarter</beat-unit>
<per-minute>c. 80</per-minute>
</metronome>
</direction-type>
<sound tempo="80"/>
</direction>
<note default-x="231" default-y="-25.0">
<pitch>
<step>C</step>
<octave>4</octave>
</pitch>
<duration>1</duration>
<voice>1</voice>
<type>quarter</type>
<stem>up</stem>
</note>
<note default-x="266" default-y="-25.0">
<pitch>
<step>F</step>
<octave>4</octave>
</pitch>
<duration>1</duration>
<voice>1</voice>
<type>quarter</type>
<stem>up</stem>
</note>
<note default-x="296" default-y="-25.0">
<pitch>
<step>F</step>
<octave>4</octave>
</pitch>
<duration>1</duration>
<voice>1</voice>
<type>quarter</type>
<dot/>
<stem>up</stem>
</note>
<note default-x="342" default-y="-25.0">
<pitch>
<step>E</step>
<octave>4</octave>
</pitch>
<duration>1</duration>
<voice>1</voice>
<type>eighth</type>
<stem>up</stem>
</note>
</measure>
	<measure number="2" width="141">
<note default-x="410" default-y="-25.0">
<pitch>
<step>F</step>
<octave>4</octave>
</pitch>
<duration>1</duration>
<voice>1</voice>
<type>quarter</type>
<stem>up</stem>
</note>
<note default-x="432" default-y="-25.0">
<pitch>
<step>A</step>
<octave>4</octave>
</pitch>
<duration>1</duration>
<voice>1</voice>
<type>quarter</type>
<stem>up</stem>
</note>
<note default-x="464" default-y="-25.0">
<pitch>
<step>A</step>
<octave>4</octave>
</pitch>
<duration>1</duration>
<voice>1</voice>
<type>quarter</type>
<stem>up</stem>
</note>
<note default-x="496" default-y="-25.0">
<pitch>
<step>G</step>
<octave>4</octave>
</pitch>
<duration>1</duration>
<voice>1</voice>
<type>quarter</type>
<stem>up</stem>
</note>
</measure>
	<measure number="3" width="152">
<note default-x="552" default-y="-25.0">
<pitch>
<step>C</step>
<octave>5</octave>
</pitch>
<duration>1</duration>
<voice>1</voice>
<type>quarter</type>
<stem>down</stem>
</note>
<note default-x="574" default-y="-25.0">
<pitch>
<step>C</step>
<octave>5</octave>
</pitch>
<duration>1</duration>
<voice>1</voice>
<type>quarter</type>
<stem>down</stem>
</note>
<note default-x="605" default-y="-25.0">
<pitch>
<step>C</step>
<octave>5</octave>
</pitch>
<duration>1</duration>
<voice>1</voice>
<type>quarter</type>
<dot/>
<stem>down</stem>
</note>
<note default-x="650" default-y="-25.0">
<pitch>
<step>B</step>
<alter>-1</alter><octave>4</octave>
</pitch>
<duration>1</duration>
<voice>1</voice>
<type>eighth</type>
<stem>down</stem>
</note>
</measure>
	<measure number="4" width="125">
<note default-x="705" default-y="-25.0">
<pitch>
<step>A</step>
<octave>4</octave>
</pitch>
<duration>1</duration>
<voice>1</voice>
<type>quarter</type>
<stem>up</stem>
</note>
<note default-x="727" default-y="-25.0">
<pitch>
<step>G</step>
<octave>4</octave>
</pitch>
<duration>1</duration>
<voice>1</voice>
<type>quarter</type>
<stem>up</stem>
</note>
<note default-x="758" default-y="-25.0">
<pitch>
<step>A</step>
<octave>4</octave>
</pitch>
<duration>2</duration>
<voice>1</voice>
<type>half</type>
<stem>up</stem>
</note>
</measure>
	<measure number="5" width="179">
<note default-x="831" default-y="-25.0">
<pitch>
<step>C</step>
<octave>4</octave>
</pitch>
<duration>1</duration>
<voice>1</voice>
<type>quarter</type>
<stem>up</stem>
</note>
<note default-x="857" default-y="-25.0">
<pitch>
<step>F</step>
<octave>4</octave>
</pitch>
<duration>1</duration>
<voice>1</voice>
<type>quarter</type>
<stem>up</stem>
</note>
<note default-x="889" default-y="-25.0">
<pitch>
<step>F</step>
<octave>4</octave>
</pitch>
<duration>1</duration>
<voice>1</voice>
<type>quarter</type>
<dot/>
<stem>up</stem>
</note>
<note default-x="938" default-y="-25.0">
<pitch>
<step>E</step>
<octave>4</octave>
</pitch>
<duration>1</duration>
<voice>1</voice>
<type>eighth</type>
<stem>up</stem>
</note>
</measure>
	<measure number="6" width="174">
<note default-x="1011" default-y="-25.0">
<pitch>
<step>F</step>
<octave>4</octave>
</pitch>
<duration>1</duration>
<voice>1</voice>
<type>quarter</type>
<stem>up</stem>
</note>
<note default-x="1033" default-y="-25.0">
<pitch>
<step>A</step>
<octave>4</octave>
</pitch>
<duration>1</duration>
<voice>1</voice>
<type>quarter</type>
<stem>up</stem>
</note>
<note default-x="1068" default-y="-25.0">
<pitch>
<step>A</step>
<octave>4</octave>
</pitch>
<duration>1</duration>
<voice>1</voice>
<type>quarter</type>
<stem>up</stem>
</note>
<note default-x="1103" default-y="-25.0">
<pitch>
<step>G</step>
<octave>4</octave>
</pitch>
<duration>1</duration>
<voice>1</voice>
<type>quarter</type>
<stem>up</stem>
</note>
<barline location="right">
<bar-style>light-heavy</bar-style>
</barline>
</measure>
	<measure number="7" width="146">
<note default-x="155" default-y="-25.0">
<pitch>
<step>C</step>
<octave>5</octave>
</pitch>
<duration>1</duration>
<voice>1</voice>
<type>quarter</type>
<stem>down</stem>
</note>
<note default-x="183" default-y="-25.0">
<pitch>
<step>G</step>
<octave>4</octave>
</pitch>
<duration>1</duration>
<voice>1</voice>
<type>quarter</type>
<stem>up</stem>
</note>
<note default-x="211" default-y="-25.0">
<pitch>
<step>G</step>
<octave>4</octave>
</pitch>
<duration>1</duration>
<voice>1</voice>
<type>quarter</type>
<dot/>
<stem>up</stem>
</note>
<note default-x="250" default-y="-25.0">
<pitch>
<step>E</step>
<octave>4</octave>
</pitch>
<duration>1</duration>
<voice>1</voice>
<type>eighth</type>
<stem>up</stem>
</note>
</measure>
	<measure number="8" width="138">
<note default-x="415" default-y="-25.0">
<pitch>
<step>C</step>
<octave>5</octave>
</pitch>
<duration>1</duration>
<voice>1</voice>
<type>quarter</type>
<stem>down</stem>
</note>
<note default-x="437" default-y="-25.0">
<pitch>
<step>C</step>
<octave>5</octave>
</pitch>
<duration>1</duration>
<voice>1</voice>
<type>quarter</type>
<stem>down</stem>
</note>
<note default-x="468" default-y="-25.0">
<pitch>
<step>C</step>
<octave>5</octave>
</pitch>
<duration>1</duration>
<voice>1</voice>
<type>quarter</type>
<stem>down</stem>
</note>
<note default-x="499" default-y="-25.0">
<pitch>
<step>G</step>
<octave>4</octave>
</pitch>
<duration>1</duration>
<voice>1</voice>
<type>quarter</type>
<stem>up</stem>
</note>
</measure>
	<measure number="9" width="123">
<note default-x="554" default-y="-25.0">
<pitch>
<step>B</step>
<alter>-1</alter><octave>4</octave>
</pitch>
<duration>1</duration>
<voice>1</voice>
<type>quarter</type>
<stem>down</stem>
</note>
<note default-x="576" default-y="-25.0">
<pitch>
<step>A</step>
<octave>4</octave>
</pitch>
<duration>1</duration>
<voice>1</voice>
<type>quarter</type>
<stem>up</stem>
</note>
<note default-x="603" default-y="-25.0">
<pitch>
<step>A</step>
<octave>4</octave>
</pitch>
<duration>1</duration>
<voice>1</voice>
<type>quarter</type>
<stem>up</stem>
</note>
<note default-x="631" default-y="-25.0">
<pitch>
<step>G</step>
<octave>4</octave>
</pitch>
<duration>1</duration>
<voice>1</voice>
<type>quarter</type>
<stem>up</stem>
</note>
</measure>
	<measure number="10" width="138">
<note default-x="678" default-y="-25.0">
<pitch>
<step>C</step>
<octave>5</octave>
</pitch>
<duration>1</duration>
<voice>1</voice>
<type>quarter</type>
<stem>down</stem>
</note>
<note default-x="699" default-y="-25.0">
<pitch>
<step>C</step>
<octave>5</octave>
</pitch>
<duration>1</duration>
<voice>1</voice>
<type>quarter</type>
<stem>down</stem>
</note>
<note default-x="731" default-y="-25.0">
<pitch>
<step>C</step>
<octave>5</octave>
</pitch>
<duration>1</duration>
<voice>1</voice>
<type>quarter</type>
<stem>down</stem>
</note>
<note default-x="762" default-y="-25.0">
<pitch>
<step>F</step>
<octave>4</octave>
</pitch>
<duration>1</duration>
<voice>1</voice>
<type>quarter</type>
<stem>up</stem>
</note>
</measure>
	<measure number="11" width="122">
<note default-x="817" default-y="-25.0">
<pitch>
<step>B</step>
<alter>-1</alter><octave>4</octave>
</pitch>
<duration>1</duration>
<voice>1</voice>
<type>quarter</type>
<stem>down</stem>
</note>
<note default-x="839" default-y="-25.0">
<pitch>
<step>A</step>
<octave>4</octave>
</pitch>
<duration>1</duration>
<voice>1</voice>
<type>quarter</type>
<stem>up</stem>
</note>
<note default-x="866" default-y="-25.0">
<pitch>
<step>A</step>
<octave>4</octave>
</pitch>
<duration>1</duration>
<voice>1</voice>
<type>quarter</type>
<stem>up</stem>
</note>
<note default-x="893" default-y="-25.0">
<pitch>
<step>G</step>
<octave>4</octave>
</pitch>
<duration>1</duration>
<voice>1</voice>
<type>quarter</type>
<stem>up</stem>
</note>
</measure>
	<measure number="12" width="122">
<note default-x="940" default-y="-25.0">
<pitch>
<step>D</step>
<octave>5</octave>
</pitch>
<duration>1</duration>
<voice>1</voice>
<type>quarter</type>
<stem>down</stem>
</note>
<note default-x="962" default-y="-25.0">
<pitch>
<step>D</step>
<octave>5</octave>
</pitch>
<duration>1</duration>
<voice>1</voice>
<type>quarter</type>
<stem>down</stem>
</note>
<note default-x="989" default-y="-25.0">
<pitch>
<step>D</step>
<octave>5</octave>
</pitch>
<duration>1</duration>
<voice>1</voice>
<type>quarter</type>
<stem>down</stem>
</note>
<note default-x="1016" default-y="-25.0">
<pitch>
<step>C</step>
<octave>5</octave>
</pitch>
<duration>1</duration>
<voice>1</voice>
<type>quarter</type>
<stem>down</stem>
</note>
</measure>
	<measure number="13" width="122">
<note default-x="1063" default-y="-25.0">
<pitch>
<step>B</step>
<alter>-1</alter><octave>4</octave>
</pitch>
<duration>1</duration>
<voice>1</voice>
<type>quarter</type>
<stem>down</stem>
</note>
<note default-x="1085" default-y="-25.0">
<pitch>
<step>A</step>
<octave>4</octave>
</pitch>
<duration>1</duration>
<voice>1</voice>
<type>quarter</type>
<stem>up</stem>
</note>
<note default-x="1117" default-y="-25.0">
<pitch>
<step>B</step>
<alter>-1</alter><octave>4</octave>
</pitch>
<duration>2</duration>
<voice>1</voice>
<type>half</type>
<stem>down</stem>
</note>
<barline location="right">
<bar-style>light-heavy</bar-style>
</barline>
</measure>
	<measure number="14" width="181">
<note default-x="155" default-y="-25.0">
<pitch>
<step>G</step>
<octave>4</octave>
</pitch>
<duration>1</duration>
<voice>1</voice>
<type>quarter</type>
<stem>up</stem>
</note>
<note default-x="183" default-y="-25.0">
<pitch>
<step>A</step>
<octave>4</octave>
</pitch>
<duration>1</duration>
<voice>1</voice>
<type>eighth</type>
<stem>up</stem>
<beam number="1">begin</beam>
</note>
<note default-x="183" default-y="-25.0">
<pitch>
<step>B</step>
<alter>-1</alter><octave>4</octave>
</pitch>
<duration>1</duration>
<voice>1</voice>
<type>eighth</type>
<stem>up</stem>
<beam number="1">end</beam>
</note>
<note default-x="239" default-y="-25.0">
<pitch>
<step>C</step>
<octave>5</octave>
</pitch>
<duration>1</duration>
<voice>1</voice>
<type>quarter</type>
<dot/>
<stem>down</stem>
</note>
<note default-x="273" default-y="-25.0">
<pitch>
<step>F</step>
<octave>4</octave>
</pitch>
<duration>1</duration>
<voice>1</voice>
<type>eighth</type>
<stem>up</stem>
</note>
</measure>
	<measure number="15" width="175">
<note default-x="482" default-y="-25.0">
<pitch>
<step>D</step>
<octave>5</octave>
</pitch>
<duration>1</duration>
<voice>1</voice>
<type>quarter</type>
<dot/>
<stem>down</stem>
</note>
<note default-x="516" default-y="-25.0">
<pitch>
<step>D</step>
<octave>5</octave>
</pitch>
<duration>1</duration>
<voice>1</voice>
<type>quarter</type>
<stem>down</stem>
</note>
<note default-x="565" default-y="-25.0">
<pitch>
<step>D</step>
<octave>5</octave>
</pitch>
<duration>1</duration>
<voice>1</voice>
<type>quarter</type>
<stem>down</stem>
</note>
<note default-x="591" default-y="-25.0">
<pitch>
<step>C</step>
<octave>5</octave>
</pitch>
<duration>1</duration>
<voice>1</voice>
<type>quarter</type>
<stem>down</stem>
</note>
</measure>
	<measure number="16" width="170">
<note default-x="658" default-y="-25.0">
<pitch>
<step>B</step>
<alter>-1</alter><octave>4</octave>
</pitch>
<duration>1</duration>
<voice>1</voice>
<type>quarter</type>
<stem>down</stem>
</note>
<note default-x="680" default-y="-25.0">
<pitch>
<step>A</step>
<octave>4</octave>
</pitch>
<duration>1</duration>
<voice>1</voice>
<type>quarter</type>
<stem>up</stem>
</note>
<note default-x="719" default-y="-25.0">
<pitch>
<step>B</step>
<alter>-1</alter><octave>4</octave>
</pitch>
<duration>2</duration>
<voice>1</voice>
<type>half</type>
<stem>up</stem>
</note>
</measure>
	<measure number="17" width="192">
<note default-x="829" default-y="-25.0">
<pitch>
<step>G</step>
<octave>4</octave>
</pitch>
<duration>1</duration>
<voice>1</voice>
<type>quarter</type>
<stem>up</stem>
</note>
<note default-x="851" default-y="-25.0">
<pitch>
<step>A</step>
<octave>4</octave>
</pitch>
<duration>1</duration>
<voice>1</voice>
<type>eighth</type>
<stem>up</stem>
<beam number="1">begin</beam>
</note>
<note default-x="851" default-y="-25.0">
<pitch>
<step>B</step>
<alter>-1</alter><octave>4</octave>
</pitch>
<duration>1</duration>
<voice>1</voice>
<type>eighth</type>
<stem>up</stem>
<beam number="1">end</beam>
</note>
<note default-x="911" default-y="-25.0">
<pitch>
<step>C</step>
<octave>5</octave>
</pitch>
<duration>1</duration>
<voice>1</voice>
<type>quarter</type>
<dot/>
<stem>down</stem>
</note>
<note default-x="947" default-y="-25.0">
<pitch>
<step>F</step>
<octave>4</octave>
</pitch>
<duration>1</duration>
<voice>1</voice>
<type>eighth</type>
<stem>up</stem>
</note>
</measure>
	<measure number="18" width="154">
<note default-x="1022" default-y="-25.0">
<pitch>
<step>F</step>
<octave>4</octave>
</pitch>
<duration>1</duration>
<voice>1</voice>
<type>quarter</type>
<stem>up</stem>
</note>
<note default-x="1044" default-y="-25.0">
<pitch>
<step>G</step>
<octave>4</octave>
</pitch>
<duration>1</duration>
<voice>1</voice>
<type>quarter</type>
<stem>up</stem>
</note>
<note default-x="1083" default-y="-25.0">
<pitch>
<step>F</step>
<octave>4</octave>
</pitch>
<duration>2</duration>
<voice>1</voice>
<type>half</type>
<stem>up</stem>
</note>
<barline location="right">
<bar-style>light-heavy</bar-style>
</barline>
</measure>
</part>
<part id="P2">
	<measure number="1" width="181">
	<print>
		<system-layout>
			<system-margins>
				<left-margin>109.66</left-margin>
				<right-margin>-0.00</right-margin>
			</system-margins>
			<top-system-distance>170.00</top-system-distance>
		</system-layout>
	</print>
	<attributes>
		<divisions>1</divisions>
		<key>
			<fifths>-1</fifths>
		</key>
		<time>
			<beats>4</beats>
			<beat-type>4</beat-type>
		</time>
		<clef>
			<sign>G</sign>
			<line>2</line>
		</clef>
	</attributes>
<direction placement="above">
<direction-type>
<words default-y="40" font-family="Times New Roman" font-size="12" font-weight="bold">Moderato  </words>
</direction-type>
<direction-type>
<metronome default-y="40" parentheses="yes">
<beat-unit>quarter</beat-unit>
<per-minute>c. 80</per-minute>
</metronome>
</direction-type>
<sound tempo="80"/>
</direction>
<note default-x="231" default-y="-25.0">
<pitch>
<step>C</step>
<octave>4</octave>
</pitch>
<duration>1</duration>
<voice>1</voice>
<type>quarter</type>
<stem>up</stem>
</note>
<note default-x="266" default-y="-25.0">
<pitch>
<step>C</step>
<octave>4</octave>
</pitch>
<duration>1</duration>
<voice>1</voice>
<type>quarter</type>
<stem>up</stem>
</note>
<note default-x="300" default-y="-25.0">
<pitch>
<step>C</step>
<octave>4</octave>
</pitch>
<duration>1</duration>
<voice>1</voice>
<type>quarter</type>
<dot/>
<stem>up</stem>
</note>
<note default-x="342" default-y="-25.0">
<pitch>
<step>C</step>
<octave>4</octave>
</pitch>
<duration>1</duration>
<voice>1</voice>
<type>eighth</type>
<stem>up</stem>
</note>
</measure>
	<measure number="2" width="141">
<note default-x="410" default-y="-25.0">
<pitch>
<step>C</step>
<octave>4</octave>
</pitch>
<duration>1</duration>
<voice>1</voice>
<type>quarter</type>
<stem>up</stem>
</note>
<note default-x="436" default-y="-25.0">
<pitch>
<step>F</step>
<octave>4</octave>
</pitch>
<duration>1</duration>
<voice>1</voice>
<type>quarter</type>
<stem>up</stem>
</note>
<note default-x="464" default-y="-25.0">
<pitch>
<step>F</step>
<octave>4</octave>
</pitch>
<duration>1</duration>
<voice>1</voice>
<type>quarter</type>
<stem>up</stem>
</note>
<note default-x="496" default-y="-25.0">
<pitch>
<step>E</step>
<octave>4</octave>
</pitch>
<duration>1</duration>
<voice>1</voice>
<type>quarter</type>
<stem>up</stem>
</note>
</measure>
	<measure number="3" width="152">
<note default-x="552" default-y="-25.0">
<pitch>
<step>F</step>
<octave>4</octave>
</pitch>
<duration>1</duration>
<voice>1</voice>
<type>quarter</type>
<stem>up</stem>
</note>
<note default-x="574" default-y="-25.0">
<pitch>
<step>E</step>
<octave>4</octave>
</pitch>
<duration>1</duration>
<voice>1</voice>
<type>quarter</type>
<stem>up</stem>
</note>
<note default-x="605" default-y="-25.0">
<pitch>
<step>D</step>
<octave>4</octave>
</pitch>
<duration>1</duration>
<voice>1</voice>
<type>quarter</type>
<stem>up</stem>
</note>
<note default-x="637" default-y="-25.0">
<pitch>
<step>G</step>
<octave>4</octave>
</pitch>
<duration>1</duration>
<voice>1</voice>
<type>quarter</type>
<stem>up</stem>
</note>
</measure>
	<measure number="4" width="125">
<note default-x="705" default-y="-25.0">
<pitch>
<step>F</step>
<octave>4</octave>
</pitch>
<duration>1</duration>
<voice>1</voice>
<type>quarter</type>
<stem>up</stem>
</note>
<note default-x="727" default-y="-25.0">
<pitch>
<step>E</step>
<octave>4</octave>
</pitch>
<duration>1</duration>
<voice>1</voice>
<type>quarter</type>
<stem>up</stem>
</note>
<note default-x="758" default-y="-25.0">
<pitch>
<step>F</step>
<octave>4</octave>
</pitch>
<duration>2</duration>
<voice>1</voice>
<type>half</type>
<stem>up</stem>
</note>
</measure>
	<measure number="5" width="179">
<note default-x="831" default-y="-25.0">
<pitch>
<step>C</step>
<octave>4</octave>
</pitch>
<duration>1</duration>
<voice>1</voice>
<type>quarter</type>
<stem>up</stem>
</note>
<note default-x="857" default-y="-25.0">
<pitch>
<step>C</step>
<octave>4</octave>
</pitch>
<duration>1</duration>
<voice>1</voice>
<type>quarter</type>
<stem>up</stem>
</note>
<note default-x="893" default-y="-25.0">
<pitch>
<step>C</step>
<octave>4</octave>
</pitch>
<duration>1</duration>
<voice>1</voice>
<type>quarter</type>
<dot/>
<stem>up</stem>
</note>
<note default-x="938" default-y="-25.0">
<pitch>
<step>C</step>
<octave>4</octave>
</pitch>
<duration>1</duration>
<voice>1</voice>
<type>eighth</type>
<stem>up</stem>
</note>
</measure>
	<measure number="6" width="174">
<note default-x="1011" default-y="-25.0">
<pitch>
<step>A</step>
<octave>4</octave>
</pitch>
<duration>1</duration>
<voice>1</voice>
<type>quarter</type>
<stem>up</stem>
</note>
<note default-x="1033" default-y="-25.0">
<pitch>
<step>F</step>
<octave>4</octave>
</pitch>
<duration>1</duration>
<voice>1</voice>
<type>quarter</type>
<stem>up</stem>
</note>
<note default-x="1068" default-y="-25.0">
<pitch>
<step>F</step>
<octave>4</octave>
</pitch>
<duration>2</duration>
<voice>1</voice>
<type>half</type>
<stem>up</stem>
</note>
<barline location="right">
<bar-style>light-heavy</bar-style>
</barline>
</measure>
	<measure number="7" width="146">
<note default-x="155" default-y="-25.0">
<pitch>
<step>E</step>
<octave>4</octave>
</pitch>
<duration>1</duration>
<voice>1</voice>
<type>quarter</type>
<stem>up</stem>
</note>
<note default-x="183" default-y="-25.0">
<pitch>
<step>D</step>
<octave>4</octave>
</pitch>
<duration>1</duration>
<voice>1</voice>
<type>quarter</type>
<stem>up</stem>
</note>
<note default-x="211" default-y="-25.0">
<pitch>
<step>E</step>
<octave>4</octave>
</pitch>
<duration>1</duration>
<voice>1</voice>
<type>quarter</type>
<dot/>
<stem>up</stem>
</note>
<note default-x="250" default-y="-25.0">
<pitch>
<step>C</step>
<octave>4</octave>
</pitch>
<duration>1</duration>
<voice>1</voice>
<type>eighth</type>
<stem>up</stem>
</note>
</measure>
	<measure number="8" width="138">
<note default-x="415" default-y="-25.0">
<pitch>
<step>C</step>
<octave>4</octave>
</pitch>
<duration>1</duration>
<voice>1</voice>
<type>quarter</type>
<stem>up</stem>
</note>
<note default-x="441" default-y="-25.0">
<pitch>
<step>C</step>
<octave>4</octave>
</pitch>
<duration>1</duration>
<voice>1</voice>
<type>quarter</type>
<stem>up</stem>
</note>
<note default-x="472" default-y="-25.0">
<pitch>
<step>C</step>
<octave>4</octave>
</pitch>
<duration>1</duration>
<voice>1</voice>
<type>quarter</type>
<stem>up</stem>
</note>
<note default-x="503" default-y="-25.0">
<pitch>
<step>F</step>
<octave>4</octave>
</pitch>
<duration>1</duration>
<voice>1</voice>
<type>quarter</type>
<stem>up</stem>
</note>
</measure>
	<measure number="9" width="123">
<note default-x="554" default-y="-25.0">
<pitch>
<step>G</step>
<octave>4</octave>
</pitch>
<duration>1</duration>
<voice>1</voice>
<type>quarter</type>
<stem>up</stem>
</note>
<note default-x="576" default-y="-25.0">
<pitch>
<step>F</step>
<octave>4</octave>
</pitch>
<duration>1</duration>
<voice>1</voice>
<type>quarter</type>
<stem>up</stem>
</note>
<note default-x="603" default-y="-25.0">
<pitch>
<step>F</step>
<octave>4</octave>
</pitch>
<duration>1</duration>
<voice>1</voice>
<type>quarter</type>
<stem>up</stem>
</note>
<note default-x="631" default-y="-25.0">
<pitch>
<step>E</step>
<octave>4</octave>
</pitch>
<duration>1</duration>
<voice>1</voice>
<type>quarter</type>
<stem>up</stem>
</note>
</measure>
	<measure number="10" width="138">
<note default-x="678" default-y="-25.0">
<pitch>
<step>C</step>
<octave>4</octave>
</pitch>
<duration>1</duration>
<voice>1</voice>
<type>quarter</type>
<stem>up</stem>
</note>
<note default-x="703" default-y="-25.0">
<pitch>
<step>C</step>
<octave>4</octave>
</pitch>
<duration>1</duration>
<voice>1</voice>
<type>quarter</type>
<stem>up</stem>
</note>
<note default-x="735" default-y="-25.0">
<pitch>
<step>C</step>
<octave>4</octave>
</pitch>
<duration>1</duration>
<voice>1</voice>
<type>quarter</type>
<stem>up</stem>
</note>
<note default-x="766" default-y="-25.0">
<pitch>
<step>F</step>
<octave>4</octave>
</pitch>
<duration>1</duration>
<voice>1</voice>
<type>quarter</type>
<stem>up</stem>
</note>
</measure>
	<measure number="11" width="122">
<note default-x="817" default-y="-25.0">
<pitch>
<step>G</step>
<octave>4</octave>
</pitch>
<duration>1</duration>
<voice>1</voice>
<type>quarter</type>
<stem>up</stem>
</note>
<note default-x="839" default-y="-25.0">
<pitch>
<step>F</step>
<octave>4</octave>
</pitch>
<duration>1</duration>
<voice>1</voice>
<type>quarter</type>
<stem>up</stem>
</note>
<note default-x="866" default-y="-25.0">
<pitch>
<step>F</step>
<octave>4</octave>
</pitch>
<duration>1</duration>
<voice>1</voice>
<type>quarter</type>
<stem>up</stem>
</note>
<note default-x="893" default-y="-25.0">
<pitch>
<step>E</step>
<octave>4</octave>
</pitch>
<duration>1</duration>
<voice>1</voice>
<type>quarter</type>
<stem>up</stem>
</note>
</measure>
	<measure number="12" width="122">
<note default-x="940" default-y="-25.0">
<pitch>
<step>B</step>
<alter>-1</alter><octave>4</octave>
</pitch>
<duration>1</duration>
<voice>1</voice>
<type>quarter</type>
<stem>down</stem>
</note>
<note default-x="962" default-y="-25.0">
<pitch>
<step>B</step>
<alter>-1</alter><octave>4</octave>
</pitch>
<duration>1</duration>
<voice>1</voice>
<type>quarter</type>
<stem>down</stem>
</note>
<note default-x="989" default-y="-25.0">
<pitch>
<step>B</step>
<alter>-1</alter><octave>4</octave>
</pitch>
<duration>1</duration>
<voice>1</voice>
<type>quarter</type>
<stem>down</stem>
</note>
<note default-x="1016" default-y="-25.0">
<pitch>
<step>A</step>
<octave>4</octave>
</pitch>
<duration>1</duration>
<voice>1</voice>
<type>quarter</type>
<stem>up</stem>
</note>
</measure>
	<measure number="13" width="122">
<note default-x="1063" default-y="-25.0">
<pitch>
<step>G</step>
<octave>4</octave>
</pitch>
<duration>1</duration>
<voice>1</voice>
<type>quarter</type>
<stem>up</stem>
</note>
<note default-x="1101" default-y="-25.0">
<pitch>
<step>F</step>
<octave>4</octave>
</pitch>
<duration>1</duration>
<voice>1</voice>
<type>quarter</type>
<stem>up</stem>
</note>
<note default-x="1117" default-y="-25.0">
<pitch>
<step>G</step>
<octave>4</octave>
</pitch>
<duration>2</duration>
<voice>1</voice>
<type>half</type>
<stem>up</stem>
</note>
<barline location="right">
<bar-style>light-heavy</bar-style>
</barline>
</measure>
	<measure number="14" width="181">
<note default-x="155" default-y="-25.0">
<pitch>
<step>E</step>
<octave>4</octave>
</pitch>
<duration>1</duration>
<voice>1</voice>
<type>quarter</type>
<stem>up</stem>
</note>
<note default-x="183" default-y="-25.0">
<pitch>
<step>E</step>
<octave>4</octave>
</pitch>
<duration>1</duration>
<voice>1</voice>
<type>quarter</type>
<stem>up</stem>
</note>
<note default-x="217" default-y="-25.0">
<pitch>
<step>F</step>
<octave>4</octave>
</pitch>
<duration>1</duration>
<voice>1</voice>
<type>quarter</type>
<dot/>
<stem>up</stem>
</note>
<note default-x="273" default-y="-25.0">
<pitch>
<step>C</step>
<octave>4</octave>
</pitch>
<duration>1</duration>
<voice>1</voice>
<type>eighth</type>
<stem>up</stem>
</note>
</measure>
	<measure number="15" width="175">
<note default-x="482" default-y="-25.0">
<pitch>
<step>F</step>
<octave>4</octave>
</pitch>
<duration>1</duration>
<voice>1</voice>
<type>quarter</type>
<dot/>
<stem>up</stem>
</note>
<note default-x="516" default-y="-25.0">
<pitch>
<step>F</step>
<octave>4</octave>
</pitch>
<duration>1</duration>
<voice>1</voice>
<type>eighth</type>
<stem>up</stem>
</note>
<note default-x="573" default-y="-25.0">
<pitch>
<step>F</step>
<octave>4</octave>
</pitch>
<duration>1</duration>
<voice>1</voice>
<type>quarter</type>
<stem>up</stem>
</note>
<note default-x="591" default-y="-25.0">
<pitch>
<step>F</step>
<octave>4</octave>
</pitch>
<duration>1</duration>
<voice>1</voice>
<type>quarter</type>
<stem>up</stem>
</note>
</measure>
	<measure number="16" width="170">
<note default-x="658" default-y="-25.0">
<pitch>
<step>D</step>
<octave>4</octave>
</pitch>
<duration>1</duration>
<voice>1</voice>
<type>quarter</type>
<stem>up</stem>
</note>
<note default-x="680" default-y="-25.0">
<pitch>
<step>D</step>
<octave>4</octave>
</pitch>
<duration>1</duration>
<voice>1</voice>
<type>quarter</type>
<stem>up</stem>
</note>
<note default-x="719" default-y="-25.0">
<pitch>
<step>D</step>
<octave>4</octave>
</pitch>
<duration>2</duration>
<voice>1</voice>
<type>half</type>
<stem>up</stem>
</note>
</measure>
	<measure number="17" width="192">
<note default-x="829" default-y="-25.0">
<pitch>
<step>E</step>
<octave>4</octave>
</pitch>
<duration>1</duration>
<voice>1</voice>
<type>quarter</type>
<stem>up</stem>
</note>
<note default-x="851" default-y="-25.0">
<pitch>
<step>E</step>
<octave>4</octave>
</pitch>
<duration>1</duration>
<voice>1</voice>
<type>quarter</type>
<stem>up</stem>
</note>
<note default-x="888" default-y="-25.0">
<pitch>
<step>F</step>
<octave>4</octave>
</pitch>
<duration>1</duration>
<voice>1</voice>
<type>quarter</type>
<dot/>
<stem>up</stem>
</note>
<note default-x="947" default-y="-25.0">
<pitch>
<step>C</step>
<octave>4</octave>
</pitch>
<duration>1</duration>
<voice>1</voice>
<type>eighth</type>
<stem>up</stem>
</note>
</measure>
	<measure number="18" width="154">
<note default-x="1022" default-y="-25.0">
<pitch>
<step>C</step>
<octave>4</octave>
</pitch>
<duration>1</duration>
<voice>1</voice>
<type>quarter</type>
<stem>up</stem>
</note>
<note default-x="1048" default-y="-25.0">
<pitch>
<step>C</step>
<octave>4</octave>
</pitch>
<duration>1</duration>
<voice>1</voice>
<type>quarter</type>
<stem>up</stem>
</note>
<note default-x="1087" default-y="-25.0">
<pitch>
<step>C</step>
<octave>4</octave>
</pitch>
<duration>2</duration>
<voice>1</voice>
<type>half</type>
<stem>up</stem>
</note>
<barline location="right">
<bar-style>light-heavy</bar-style>
</barline>
</measure>
</part>
<part id="P3">
	<measure number="1" width="181">
	<print>
		<system-layout>
			<system-margins>
				<left-margin>109.66</left-margin>
				<right-margin>-0.00</right-margin>
			</system-margins>
			<top-system-distance>170.00</top-system-distance>
		</system-layout>
	</print>
	<attributes>
		<divisions>1</divisions>
		<key>
			<fifths>-1</fifths>
		</key>
		<time>
			<beats>4</beats>
			<beat-type>4</beat-type>
		</time>
		<clef>
			<sign>G</sign>
			<line>2</line>
		</clef>
	</attributes>
<direction placement="above">
<direction-type>
<words default-y="40" font-family="Times New Roman" font-size="12" font-weight="bold">Moderato  </words>
</direction-type>
<direction-type>
<metronome default-y="40" parentheses="yes">
<beat-unit>quarter</beat-unit>
<per-minute>c. 80</per-minute>
</metronome>
</direction-type>
<sound tempo="80"/>
</direction>
<note default-x="231" default-y="-25.0">
<pitch>
<step>A</step>
<octave>4</octave>
</pitch>
<duration>1</duration>
<voice>1</voice>
<type>quarter</type>
<stem>up</stem>
</note>
<note default-x="262" default-y="-25.0">
<pitch>
<step>A</step>
<octave>4</octave>
</pitch>
<duration>1</duration>
<voice>1</voice>
<type>quarter</type>
<stem>up</stem>
</note>
<note default-x="296" default-y="-25.0">
<pitch>
<step>A</step>
<octave>4</octave>
</pitch>
<duration>1</duration>
<voice>1</voice>
<type>quarter</type>
<dot/>
<stem>up</stem>
</note>
<note default-x="342" default-y="-25.0">
<pitch>
<step>G</step>
<octave>4</octave>
</pitch>
<duration>1</duration>
<voice>1</voice>
<type>eighth</type>
<stem>up</stem>
</note>
</measure>
	<measure number="2" width="141">
<note default-x="410" default-y="-25.0">
<pitch>
<step>F</step>
<octave>4</octave>
</pitch>
<duration>1</duration>
<voice>1</voice>
<type>quarter</type>
<stem>up</stem>
</note>
<note default-x="432" default-y="-25.0">
<pitch>
<step>C</step>
<octave>5</octave>
</pitch>
<duration>1</duration>
<voice>1</voice>
<type>quarter</type>
<stem>down</stem>
</note>
<note default-x="464" default-y="-25.0">
<pitch>
<step>C</step>
<octave>5</octave>
</pitch>
<duration>2</duration>
<voice>1</voice>
<type>half</type>
<stem>down</stem>
</note>
</measure>
	<measure number="3" width="152">
<note default-x="552" default-y="-25.0">
<pitch>
<step>C</step>
<octave>5</octave>
</pitch>
<duration>1</duration>
<voice>1</voice>
<type>quarter</type>
<stem>down</stem>
</note>
<note default-x="574" default-y="-25.0">
<pitch>
<step>C</step>
<octave>5</octave>
</pitch>
<duration>1</duration>
<voice>1</voice>
<type>quarter</type>
<stem>down</stem>
</note>
<note default-x="605" default-y="-25.0">
<pitch>
<step>D</step>
<octave>5</octave>
</pitch>
<duration>1</duration>
<voice>1</voice>
<type>quarter</type>
<stem>down</stem>
</note>
<note default-x="637" default-y="-25.0">
<pitch>
<step>D</step>
<octave>5</octave>
</pitch>
<duration>1</duration>
<voice>1</voice>
<type>quarter</type>
<stem>down</stem>
</note>
</measure>
	<measure number="4" width="125">
<note default-x="705" default-y="-25.0">
<pitch>
<step>C</step>
<octave>5</octave>
</pitch>
<duration>1</duration>
<voice>1</voice>
<type>quarter</type>
<stem>down</stem>
</note>
<note default-x="727" default-y="-25.0">
<pitch>
<step>C</step>
<octave>5</octave>
</pitch>
<duration>1</duration>
<voice>1</voice>
<type>quarter</type>
<stem>down</stem>
</note>
<note default-x="758" default-y="-25.0">
<pitch>
<step>C</step>
<octave>5</octave>
</pitch>
<duration>2</duration>
<voice>1</voice>
<type>half</type>
<stem>down</stem>
</note>
</measure>
	<measure number="5" width="179">
<note default-x="831" default-y="-25.0">
<pitch>
<step>A</step>
<octave>4</octave>
</pitch>
<duration>1</duration>
<voice>1</voice>
<type>quarter</type>
<stem>up</stem>
</note>
<note default-x="853" default-y="-25.0">
<pitch>
<step>A</step>
<octave>4</octave>
</pitch>
<duration>1</duration>
<voice>1</voice>
<type>quarter</type>
<stem>up</stem>
</note>
<note default-x="889" default-y="-25.0">
<pitch>
<step>A</step>
<octave>4</octave>
</pitch>
<duration>1</duration>
<voice>1</voice>
<type>quarter</type>
<dot/>
<stem>up</stem>
</note>
<note default-x="938" default-y="-25.0">
<pitch>
<step>G</step>
<octave>4</octave>
</pitch>
<duration>1</duration>
<voice>1</voice>
<type>eighth</type>
<stem>up</stem>
</note>
</measure>
	<measure number="6" width="174">
<note default-x="1011" default-y="-25.0">
<pitch>
<step>F</step>
<octave>4</octave>
</pitch>
<duration>1</duration>
<voice>1</voice>
<type>quarter</type>
<stem>up</stem>
</note>
<note default-x="1033" default-y="-25.0">
<pitch>
<step>C</step>
<octave>5</octave>
</pitch>
<duration>1</duration>
<voice>1</voice>
<type>quarter</type>
<stem>down</stem>
</note>
<note default-x="1068" default-y="-25.0">
<pitch>
<step>D</step>
<octave>5</octave>
</pitch>
<duration>2</duration>
<voice>1</voice>
<type>half</type>
<stem>down</stem>
</note>
<barline location="right">
<bar-style>light-heavy</bar-style>
</barline>
</measure>
	<measure number="7" width="146">
<note default-x="155" default-y="-25.0">
<pitch>
<step>C</step>
<octave>5</octave>
</pitch>
<duration>1</duration>
<voice>1</voice>
<type>quarter</type>
<stem>down</stem>
</note>
<note default-x="183" default-y="-25.0">
<pitch>
<step>D</step>
<octave>5</octave>
</pitch>
<duration>1</duration>
<voice>1</voice>
<type>quarter</type>
<stem>down</stem>
</note>
<note default-x="211" default-y="-25.0">
<pitch>
<step>C</step>
<octave>5</octave>
</pitch>
<duration>1</duration>
<voice>1</voice>
<type>quarter</type>
<dot/>
<stem>down</stem>
</note>
<note default-x="250" default-y="-25.0">
<pitch>
<step>G</step>
<octave>4</octave>
</pitch>
<duration>1</duration>
<voice>1</voice>
<type>eighth</type>
<stem>up</stem>
</note>
</measure>
	<measure number="8" width="138">
<note default-x="415" default-y="-25.0">
<pitch>
<step>C</step>
<octave>5</octave>
</pitch>
<duration>1</duration>
<voice>1</voice>
<type>quarter</type>
<stem>down</stem>
</note>
<note default-x="437" default-y="-25.0">
<pitch>
<step>C</step>
<octave>5</octave>
</pitch>
<duration>1</duration>
<voice>1</voice>
<type>quarter</type>
<stem>down</stem>
</note>
<note default-x="468" default-y="-25.0">
<pitch>
<step>C</step>
<octave>5</octave>
</pitch>
<duration>1</duration>
<voice>1</voice>
<type>quarter</type>
<stem>down</stem>
</note>
<note default-x="499" default-y="-25.0">
<pitch>
<step>C</step>
<octave>5</octave>
</pitch>
<duration>1</duration>
<voice>1</voice>
<type>quarter</type>
<stem>down</stem>
</note>
</measure>
	<measure number="9" width="123">
<note default-x="554" default-y="-25.0">
<pitch>
<step>C</step>
<octave>5</octave>
</pitch>
<duration>1</duration>
<voice>1</voice>
<type>quarter</type>
<stem>down</stem>
</note>
<note default-x="576" default-y="-25.0">
<pitch>
<step>C</step>
<octave>5</octave>
</pitch>
<duration>1</duration>
<voice>1</voice>
<type>quarter</type>
<stem>down</stem>
</note>
<note default-x="603" default-y="-25.0">
<pitch>
<step>C</step>
<octave>5</octave>
</pitch>
<duration>2</duration>
<voice>1</voice>
<type>half</type>
<stem>down</stem>
</note>
</measure>
	<measure number="10" width="138">
<note default-x="678" default-y="-25.0">
<pitch>
<step>C</step>
<octave>5</octave>
</pitch>
<duration>1</duration>
<voice>1</voice>
<type>quarter</type>
<stem>down</stem>
</note>
<note default-x="699" default-y="-25.0">
<pitch>
<step>C</step>
<octave>5</octave>
</pitch>
<duration>1</duration>
<voice>1</voice>
<type>quarter</type>
<stem>down</stem>
</note>
<note default-x="731" default-y="-25.0">
<pitch>
<step>C</step>
<octave>5</octave>
</pitch>
<duration>1</duration>
<voice>1</voice>
<type>quarter</type>
<stem>down</stem>
</note>
<note default-x="762" default-y="-25.0">
<pitch>
<step>C</step>
<octave>5</octave>
</pitch>
<duration>1</duration>
<voice>1</voice>
<type>quarter</type>
<stem>down</stem>
</note>
</measure>
	<measure number="11" width="122">
<note default-x="817" default-y="-25.0">
<pitch>
<step>C</step>
<octave>5</octave>
</pitch>
<duration>1</duration>
<voice>1</voice>
<type>quarter</type>
<stem>down</stem>
</note>
<note default-x="839" default-y="-25.0">
<pitch>
<step>C</step>
<octave>5</octave>
</pitch>
<duration>1</duration>
<voice>1</voice>
<type>quarter</type>
<stem>down</stem>
</note>
<note default-x="866" default-y="-25.0">
<pitch>
<step>C</step>
<octave>5</octave>
</pitch>
<duration>2</duration>
<voice>1</voice>
<type>half</type>
<stem>down</stem>
</note>
</measure>
	<measure number="12" width="122">
<note default-x="940" default-y="-25.0">
<pitch>
<step>D</step>
<octave>5</octave>
</pitch>
<duration>1</duration>
<voice>1</voice>
<type>quarter</type>
<stem>down</stem>
</note>
<note default-x="962" default-y="-25.0">
<pitch>
<step>D</step>
<octave>5</octave>
</pitch>
<duration>1</duration>
<voice>1</voice>
<type>quarter</type>
<stem>down</stem>
</note>
<note default-x="989" default-y="-25.0">
<pitch>
<step>D</step>
<octave>5</octave>
</pitch>
<duration>1</duration>
<voice>1</voice>
<type>quarter</type>
<stem>down</stem>
</note>
<note default-x="1016" default-y="-25.0">
<pitch>
<step>D</step>
<octave>5</octave>
</pitch>
<duration>1</duration>
<voice>1</voice>
<type>quarter</type>
<stem>down</stem>
</note>
</measure>
	<measure number="13" width="122">
<note default-x="1063" default-y="-25.0">
<pitch>
<step>D</step>
<octave>5</octave>
</pitch>
<duration>1</duration>
<voice>1</voice>
<type>quarter</type>
<stem>down</stem>
</note>
<note default-x="1085" default-y="-25.0">
<pitch>
<step>D</step>
<octave>5</octave>
</pitch>
<duration>1</duration>
<voice>1</voice>
<type>quarter</type>
<stem>down</stem>
</note>
<note default-x="1117" default-y="-25.0">
<pitch>
<step>D</step>
<octave>5</octave>
</pitch>
<duration>2</duration>
<voice>1</voice>
<type>half</type>
<stem>down</stem>
</note>
<barline location="right">
<bar-style>light-heavy</bar-style>
</barline>
</measure>
	<measure number="14" width="181">
<note default-x="155" default-y="-25.0">
<pitch>
<step>C</step>
<octave>5</octave>
</pitch>
<duration>1</duration>
<voice>1</voice>
<type>quarter</type>
<stem>down</stem>
</note>
<note default-x="183" default-y="-25.0">
<pitch>
<step>C</step>
<octave>5</octave>
</pitch>
<duration>1</duration>
<voice>1</voice>
<type>quarter</type>
<stem>down</stem>
</note>
<note default-x="217" default-y="-25.0">
<pitch>
<step>C</step>
<octave>5</octave>
</pitch>
<duration>1</duration>
<voice>1</voice>
<type>quarter</type>
<dot/>
<stem>down</stem>
</note>
<note default-x="273" default-y="-25.0">
<pitch>
<step>A</step>
<octave>4</octave>
</pitch>
<duration>1</duration>
<voice>1</voice>
<type>eighth</type>
<stem>up</stem>
</note>
</measure>
	<measure number="15" width="175">
<note default-x="482" default-y="-25.0">
<pitch>
<step>B</step>
<alter>-1</alter><octave>4</octave>
</pitch>
<duration>1</duration>
<voice>1</voice>
<type>quarter</type>
<dot/>
<stem>down</stem>
</note>
<note default-x="516" default-y="-25.0">
<pitch>
<step>B</step>
<alter>-1</alter><octave>4</octave>
</pitch>
<duration>1</duration>
<voice>1</voice>
<type>quarter</type>
<stem>down</stem>
</note>
<note default-x="565" default-y="-25.0">
<pitch>
<step>B</step>
<alter>-1</alter><octave>4</octave>
</pitch>
<duration>1</duration>
<voice>1</voice>
<type>quarter</type>
<stem>down</stem>
</note>
<note default-x="591" default-y="-25.0">
<pitch>
<step>A</step>
<octave>4</octave>
</pitch>
<duration>1</duration>
<voice>1</voice>
<type>quarter</type>
<stem>up</stem>
</note>
</measure>
	<measure number="16" width="170">
<note default-x="658" default-y="-25.0">
<pitch>
<step>G</step>
<octave>4</octave>
</pitch>
<duration>1</duration>
<voice>1</voice>
<type>quarter</type>
<stem>up</stem>
</note>
<note default-x="703" default-y="-25.0">
<pitch>
<step>F</step>
<octave>4</octave>
</pitch>
<duration>1</duration>
<voice>1</voice>
<type>quarter</type>
<stem>up</stem>
</note>
<note default-x="719" default-y="-25.0">
<pitch>
<step>F</step>
<octave>4</octave>
</pitch>
<duration>2</duration>
<voice>1</voice>
<type>half</type>
<stem>up</stem>
</note>
</measure>
	<measure number="17" width="192">
<note default-x="829" default-y="-25.0">
<pitch>
<step>C</step>
<octave>5</octave>
</pitch>
<duration>1</duration>
<voice>1</voice>
<type>quarter</type>
<stem>down</stem>
</note>
<note default-x="851" default-y="-25.0">
<pitch>
<step>C</step>
<octave>5</octave>
</pitch>
<duration>1</duration>
<voice>1</voice>
<type>quarter</type>
<stem>down</stem>
</note>
<note default-x="888" default-y="-25.0">
<pitch>
<step>C</step>
<octave>5</octave>
</pitch>
<duration>1</duration>
<voice>1</voice>
<type>quarter</type>
<dot/>
<stem>down</stem>
</note>
<note default-x="947" default-y="-25.0">
<pitch>
<step>A</step>
<octave>4</octave>
</pitch>
<duration>1</duration>
<voice>1</voice>
<type>eighth</type>
<stem>up</stem>
</note>
</measure>
	<measure number="18" width="154">
<note default-x="1022" default-y="-25.0">
<pitch>
<step>A</step>
<octave>4</octave>
</pitch>
<duration>1</duration>
<voice>1</voice>
<type>quarter</type>
<stem>up</stem>
</note>
<note default-x="1044" default-y="-25.0">
<pitch>
<step>B</step>
<alter>-1</alter><octave>4</octave>
</pitch>
<duration>1</duration>
<voice>1</voice>
<type>quarter</type>
<stem>down</stem>
</note>
<note default-x="1083" default-y="-25.0">
<pitch>
<step>A</step>
<octave>4</octave>
</pitch>
<duration>2</duration>
<voice>1</voice>
<type>half</type>
<stem>up</stem>
</note>
<barline location="right">
<bar-style>light-heavy</bar-style>
</barline>
</measure>
</part>
<part id="P4">
	<measure number="1" width="181">
	<print>
		<system-layout>
			<system-margins>
				<left-margin>109.66</left-margin>
				<right-margin>-0.00</right-margin>
			</system-margins>
			<top-system-distance>170.00</top-system-distance>
		</system-layout>
	</print>
	<attributes>
		<divisions>1</divisions>
		<key>
			<fifths>-1</fifths>
		</key>
		<time>
			<beats>4</beats>
			<beat-type>4</beat-type>
		</time>
		<clef>
			<sign>F</sign>			<line>4</line>		</clef>
	</attributes>
<direction placement="above">
<direction-type>
<words default-y="40" font-family="Times New Roman" font-size="12" font-weight="bold">Moderato  </words>
</direction-type>
<direction-type>
<metronome default-y="40" parentheses="yes">
<beat-unit>quarter</beat-unit>
<per-minute>c. 80</per-minute>
</metronome>
</direction-type>
<sound tempo="80"/>
</direction>
<note default-x="231" default-y="-25.0">
<pitch>
<step>F</step>
<octave>3</octave>
</pitch>
<duration>1</duration>
<voice>1</voice>
<type>quarter</type>
<stem>down</stem>
</note>
<note default-x="262" default-y="-25.0">
<pitch>
<step>F</step>
<octave>3</octave>
</pitch>
<duration>1</duration>
<voice>1</voice>
<type>quarter</type>
<stem>down</stem>
</note>
<note default-x="296" default-y="-25.0">
<pitch>
<step>F</step>
<octave>3</octave>
</pitch>
<duration>1</duration>
<voice>1</voice>
<type>quarter</type>
<stem>down</stem>
</note>
<note default-x="329" default-y="-25.0">
<pitch>
<step>C</step>
<octave>3</octave>
</pitch>
<duration>1</duration>
<voice>1</voice>
<type>quarter</type>
<stem>up</stem>
</note>
</measure>
	<measure number="2" width="141">
<note default-x="410" default-y="-25.0">
<pitch>
<step>A</step>
<octave>2</octave>
</pitch>
<duration>1</duration>
<voice>1</voice>
<type>quarter</type>
<stem>up</stem>
</note>
<note default-x="432" default-y="-25.0">
<pitch>
<step>F</step>
<octave>2</octave>
</pitch>
<duration>1</duration>
<voice>1</voice>
<type>quarter</type>
<stem>up</stem>
</note>
<note default-x="464" default-y="-25.0">
<pitch>
<step>C</step>
<octave>3</octave>
</pitch>
<duration>2</duration>
<voice>1</voice>
<type>half</type>
<stem>up</stem>
</note>
</measure>
	<measure number="3" width="152">
<note default-x="552" default-y="-25.0">
<pitch>
<step>A</step>
<octave>2</octave>
</pitch>
<duration>1</duration>
<voice>1</voice>
<type>quarter</type>
<stem>up</stem>
</note>
<note default-x="574" default-y="-25.0">
<pitch>
<step>A</step>
<octave>2</octave>
</pitch>
<duration>1</duration>
<voice>1</voice>
<type>quarter</type>
<stem>up</stem>
</note>
<note default-x="605" default-y="-25.0">
<pitch>
<step>B</step>
<alter>-1</alter><octave>2</octave>
</pitch>
<duration>1</duration>
<voice>1</voice>
<type>quarter</type>
<stem>up</stem>
</note>
<note default-x="637" default-y="-25.0">
<pitch>
<step>B</step>
<alter>-1</alter><octave>2</octave>
</pitch>
<duration>1</duration>
<voice>1</voice>
<type>quarter</type>
<stem>up</stem>
</note>
</measure>
	<measure number="4" width="125">
<note default-x="705" default-y="-25.0">
<pitch>
<step>C</step>
<octave>3</octave>
</pitch>
<duration>1</duration>
<voice>1</voice>
<type>quarter</type>
<stem>up</stem>
</note>
<note default-x="727" default-y="-25.0">
<pitch>
<step>C</step>
<octave>3</octave>
</pitch>
<duration>1</duration>
<voice>1</voice>
<type>quarter</type>
<stem>up</stem>
</note>
<note default-x="758" default-y="-25.0">
<pitch>
<step>F</step>
<octave>2</octave>
</pitch>
<duration>2</duration>
<voice>1</voice>
<type>half</type>
<stem>up</stem>
</note>
</measure>
	<measure number="5" width="179">
<note default-x="831" default-y="-25.0">
<pitch>
<step>F</step>
<octave>3</octave>
</pitch>
<duration>1</duration>
<voice>1</voice>
<type>quarter</type>
<stem>down</stem>
</note>
<note default-x="853" default-y="-25.0">
<pitch>
<step>F</step>
<octave>3</octave>
</pitch>
<duration>1</duration>
<voice>1</voice>
<type>quarter</type>
<stem>down</stem>
</note>
<note default-x="889" default-y="-25.0">
<pitch>
<step>F</step>
<octave>3</octave>
</pitch>
<duration>1</duration>
<voice>1</voice>
<type>quarter</type>
<stem>down</stem>
</note>
<note default-x="925" default-y="-25.0">
<pitch>
<step>C</step>
<octave>3</octave>
</pitch>
<duration>1</duration>
<voice>1</voice>
<type>quarter</type>
<stem>up</stem>
</note>
</measure>
	<measure number="6" width="174">
<note default-x="1011" default-y="-25.0">
<pitch>
<step>D</step>
<octave>3</octave>
</pitch>
<duration>1</duration>
<voice>1</voice>
<type>quarter</type>
<stem>down</stem>
</note>
<note default-x="1033" default-y="-25.0">
<pitch>
<step>C</step>
<octave>3</octave>
</pitch>
<duration>1</duration>
<voice>1</voice>
<type>quarter</type>
<stem>up</stem>
</note>
<note default-x="1087" default-y="-25.0">
<pitch>
<step>B</step>
<alter>-1</alter><octave>2</octave>
</pitch>
<duration>1</duration>
<voice>1</voice>
<type>quarter</type>
<dot/>
<stem>up</stem>
</note>
<note default-x="1115" default-y="-25.0">
<pitch>
<step>G</step>
<octave>2</octave>
</pitch>
<duration>1</duration>
<voice>1</voice>
<type>eighth</type>
<stem>up</stem>
</note>
<barline location="right">
<bar-style>light-heavy</bar-style>
</barline>
</measure>
	<measure number="7" width="146">
<note default-x="155" default-y="-25.0">
<pitch>
<step>A</step>
<octave>2</octave>
</pitch>
<duration>1</duration>
<voice>1</voice>
<type>quarter</type>
<stem>up</stem>
</note>
<note default-x="195" default-y="-25.0">
<pitch>
<step>B</step>
<alter>-1</alter><octave>2</octave>
</pitch>
<duration>1</duration>
<voice>1</voice>
<type>quarter</type>
<stem>up</stem>
</note>
<note default-x="211" default-y="-25.0">
<pitch>
<step>C</step>
<octave>3</octave>
</pitch>
<duration>1</duration>
<voice>1</voice>
<type>quarter</type>
<stem>up</stem>
</note>
<note default-x="238" default-y="-25.0">
<pitch>
<step>E</step>
<octave>2</octave>
</pitch>
<duration>1</duration>
<voice>1</voice>
<type>quarter</type>
<stem>up</stem>
</note>
</measure>
	<measure number="8" width="138">
<note default-x="415" default-y="-25.0">
<pitch>
<step>B</step>
<alter>-1</alter><octave>3</octave>
</pitch>
<duration>1</duration>
<voice>1</voice>
<type>quarter</type>
<stem>down</stem>
</note>
<note default-x="441" default-y="-25.0">
<pitch>
<step>B</step>
<alter>-1</alter><octave>3</octave>
</pitch>
<duration>1</duration>
<voice>1</voice>
<type>quarter</type>
<stem>down</stem>
</note>
<note default-x="472" default-y="-25.0">
<pitch>
<step>B</step>
<alter>-1</alter><octave>3</octave>
</pitch>
<duration>1</duration>
<voice>1</voice>
<type>quarter</type>
<stem>down</stem>
</note>
<note default-x="503" default-y="-25.0">
<pitch>
<step>A</step>
<octave>3</octave>
</pitch>
<duration>1</duration>
<voice>1</voice>
<type>quarter</type>
<stem>down</stem>
</note>
</measure>
	<measure number="9" width="123">
<note default-x="554" default-y="-25.0">
<pitch>
<step>E</step>
<octave>3</octave>
</pitch>
<duration>1</duration>
<voice>1</voice>
<type>quarter</type>
<stem>down</stem>
</note>
<note default-x="576" default-y="-25.0">
<pitch>
<step>F</step>
<octave>3</octave>
</pitch>
<duration>1</duration>
<voice>1</voice>
<type>quarter</type>
<stem>down</stem>
</note>
<note default-x="603" default-y="-25.0">
<pitch>
<step>C</step>
<octave>3</octave>
</pitch>
<duration>2</duration>
<voice>1</voice>
<type>half</type>
<stem>up</stem>
</note>
</measure>
	<measure number="10" width="138">
<note default-x="678" default-y="-25.0">
<pitch>
<step>B</step>
<alter>-1</alter><octave>3</octave>
</pitch>
<duration>1</duration>
<voice>1</voice>
<type>quarter</type>
<stem>down</stem>
</note>
<note default-x="703" default-y="-25.0">
<pitch>
<step>B</step>
<alter>-1</alter><octave>3</octave>
</pitch>
<duration>1</duration>
<voice>1</voice>
<type>quarter</type>
<stem>down</stem>
</note>
<note default-x="735" default-y="-25.0">
<pitch>
<step>B</step>
<alter>-1</alter><octave>3</octave>
</pitch>
<duration>1</duration>
<voice>1</voice>
<type>quarter</type>
<stem>down</stem>
</note>
<note default-x="766" default-y="-25.0">
<pitch>
<step>A</step>
<octave>3</octave>
</pitch>
<duration>1</duration>
<voice>1</voice>
<type>quarter</type>
<stem>down</stem>
</note>
</measure>
	<measure number="11" width="122">
<note default-x="817" default-y="-25.0">
<pitch>
<step>E</step>
<octave>3</octave>
</pitch>
<duration>1</duration>
<voice>1</voice>
<type>quarter</type>
<stem>down</stem>
</note>
<note default-x="839" default-y="-25.0">
<pitch>
<step>F</step>
<octave>3</octave>
</pitch>
<duration>1</duration>
<voice>1</voice>
<type>quarter</type>
<stem>down</stem>
</note>
<note default-x="866" default-y="-25.0">
<pitch>
<step>B</step>
<alter>-1</alter><octave>2</octave>
</pitch>
<duration>2</duration>
<voice>1</voice>
<type>half</type>
<stem>up</stem>
</note>
</measure>
	<measure number="12" width="122">
<note default-x="940" default-y="-25.0">
<pitch>
<step>B</step>
<alter>-1</alter><octave>2</octave>
</pitch>
<duration>1</duration>
<voice>1</voice>
<type>quarter</type>
<stem>up</stem>
</note>
<note default-x="962" default-y="-25.0">
<pitch>
<step>B</step>
<alter>-1</alter><octave>2</octave>
</pitch>
<duration>1</duration>
<voice>1</voice>
<type>quarter</type>
<stem>up</stem>
</note>
<note default-x="989" default-y="-25.0">
<pitch>
<step>B</step>
<alter>-1</alter><octave>2</octave>
</pitch>
<duration>1</duration>
<voice>1</voice>
<type>quarter</type>
<stem>up</stem>
</note>
<note default-x="1016" default-y="-25.0">
<pitch>
<step>B</step>
<alter>-1</alter><octave>2</octave>
</pitch>
<duration>1</duration>
<voice>1</voice>
<type>quarter</type>
<stem>up</stem>
</note>
</measure>
	<measure number="13" width="122">
<note default-x="1063" default-y="-25.0">
<pitch>
<step>B</step>
<alter>-1</alter><octave>2</octave>
</pitch>
<duration>1</duration>
<voice>1</voice>
<type>quarter</type>
<stem>up</stem>
</note>
<note default-x="1085" default-y="-25.0">
<pitch>
<step>D</step>
<octave>3</octave>
</pitch>
<duration>1</duration>
<voice>1</voice>
<type>quarter</type>
<stem>down</stem>
</note>
<note default-x="1117" default-y="-25.0">
<pitch>
<step>G</step>
<octave>3</octave>
</pitch>
<duration>2</duration>
<voice>1</voice>
<type>half</type>
<stem>down</stem>
</note>
<barline location="right">
<bar-style>light-heavy</bar-style>
</barline>
</measure>
	<measure number="14" width="181">
<note default-x="155" default-y="-25.0">
<pitch>
<step>B</step>
<alter>-1</alter><octave>3</octave>
</pitch>
<duration>1</duration>
<voice>1</voice>
<type>quarter</type>
<stem>down</stem>
</note>
<note default-x="187" default-y="-25.0">
<pitch>
<step>B</step>
<alter>-1</alter><octave>3</octave>
</pitch>
<duration>1</duration>
<voice>1</voice>
<type>quarter</type>
<stem>down</stem>
</note>
<note default-x="217" default-y="-25.0">
<pitch>
<step>A</step>
<octave>3</octave>
</pitch>
<duration>1</duration>
<voice>1</voice>
<type>quarter</type>
<stem>down</stem>
</note>
<note default-x="261" default-y="-25.0">
<pitch>
<step>F</step>
<octave>3</octave>
</pitch>
<duration>1</duration>
<voice>1</voice>
<type>quarter</type>
<stem>down</stem>
</note>
</measure>
	<measure number="15" width="175">
<note default-x="482" default-y="-25.0">
<pitch>
<step>B</step>
<alter>-1</alter><octave>2</octave>
</pitch>
<duration>1</duration>
<voice>1</voice>
<type>quarter</type>
<stem>up</stem>
</note>
<note default-x="504" default-y="-25.0">
<pitch>
<step>B</step>
<alter>-1</alter><octave>2</octave>
</pitch>
<duration>1</duration>
<voice>1</voice>
<type>quarter</type>
<stem>up</stem>
</note>
<note default-x="541" default-y="-25.0">
<pitch>
<step>B</step>
<alter>-1</alter><octave>2</octave>
</pitch>
<duration>1</duration>
<voice>1</voice>
<type>quarter</type>
<stem>up</stem>
</note>
<note default-x="591" default-y="-25.0">
<pitch>
<step>B</step>
<alter>-1</alter><octave>2</octave>
</pitch>
<duration>1</duration>
<voice>1</voice>
<type>quarter</type>
<stem>up</stem>
</note>
</measure>
	<measure number="16" width="170">
<note default-x="658" default-y="-25.0">
<pitch>
<step>B</step>
<alter>-1</alter><octave>2</octave>
</pitch>
<duration>1</duration>
<voice>1</voice>
<type>quarter</type>
<stem>up</stem>
</note>
<note default-x="680" default-y="-25.0">
<pitch>
<step>D</step>
<octave>3</octave>
</pitch>
<duration>1</duration>
<voice>1</voice>
<type>quarter</type>
<stem>down</stem>
</note>
<note default-x="719" default-y="-25.0">
<pitch>
<step>G</step>
<octave>3</octave>
</pitch>
<duration>1</duration>
<voice>1</voice>
<type>quarter</type>
<stem>down</stem>
</note>
<note default-x="758" default-y="-25.0">
<pitch>
<step>F</step>
<octave>3</octave>
</pitch>
<duration>1</duration>
<voice>1</voice>
<type>quarter</type>
<stem>down</stem>
</note>
</measure>
	<measure number="17" width="192">
<note default-x="829" default-y="-25.0">
<pitch>
<step>E</step>
<octave>3</octave>
</pitch>
<duration>1</duration>
<voice>1</voice>
<type>quarter</type>
<stem>down</stem>
</note>
<note default-x="851" default-y="-25.0">
<pitch>
<step>B</step>
<alter>-1</alter><octave>3</octave>
</pitch>
<duration>1</duration>
<voice>1</voice>
<type>quarter</type>
<stem>down</stem>
</note>
<note default-x="888" default-y="-25.0">
<pitch>
<step>A</step>
<octave>3</octave>
</pitch>
<duration>1</duration>
<voice>1</voice>
<type>quarter</type>
<stem>down</stem>
</note>
<note default-x="935" default-y="-25.0">
<pitch>
<step>F</step>
<octave>3</octave>
</pitch>
<duration>1</duration>
<voice>1</voice>
<type>quarter</type>
<stem>down</stem>
</note>
</measure>
	<measure number="18" width="154">
<note default-x="1022" default-y="-25.0">
<pitch>
<step>C</step>
<octave>3</octave>
</pitch>
<duration>1</duration>
<voice>1</voice>
<type>quarter</type>
<stem>up</stem>
</note>
<note default-x="1044" default-y="-25.0">
<pitch>
<step>C</step>
<octave>3</octave>
</pitch>
<duration>1</duration>
<voice>1</voice>
<type>quarter</type>
<stem>up</stem>
</note>
<note default-x="1083" default-y="-25.0">
<pitch>
<step>F</step>
<octave>2</octave>
</pitch>
<duration>2</duration>
<voice>1</voice>
<type>half</type>
<stem>up</stem>
</note>
<barline location="right">
<bar-style>light-heavy</bar-style>
</barline>
</measure>
</part>
</score-partwise>
